<?xml version="1.0" encoding="utf-8"?>
<!-- Generator: Adobe Illustrator 20.0.0, SVG Export Plug-In . SVG Version: 6.00 Build 0)  -->
<svg version="1.1" id="Layer_1" xmlns="http://www.w3.org/2000/svg" xmlns:xlink="http://www.w3.org/1999/xlink" x="0px" y="0px"
	 viewBox="0 0 792 230" style="enable-background:new 0 0 792 230;" xml:space="preserve">
<g>
	<path d="M286,127.8c-6.3,3.1-12.9,5.5-19.2,8.8c-4.5,2.4-9.3,4.2-14,6.3c-0.5,0.2-1.1,0.3-1.6,0.3c-3.5,0.2-6.4,2-9.1,3.9
		c-2.2,1.6-4.7,2.4-7.2,3.5c-1.4,0.6-2,0.4-4.7-0.8c-1-2.1-0.2-3.7,1.5-5c4-3,8-6.1,12.8-7.9c1.8-0.7,3.4-1.6,5-2.7
		c2-1.4,3.9-2.5,6.5-2.5c2.9,0,3.1,0,3.6,3.4c2.5-1.4,5.2-2.2,7.7-3.4c3.2-1.5,6.4-3.2,9.8-4.3c1.5-0.5,2.9-1.4,4.3-2.1
		c1.9-0.9,3.9-1.5,5.6-2.5c1.2-0.7,2.5-1.5,3.5-2.3c2.5-2,5.5-2.9,8.1-4.6c3.4-2.1,6.7-4.4,10.1-6.5c3.5-2.1,6.3-5.2,9.8-7.4
		c2.2-1.3,3.7-3.3,5.3-5.1c1.2-1.3,2.5-1.8,4.1-1.3c1.8,2.7,1.6,3-0.7,5.1c-4,3.7-8.5,6.6-12.7,10c-1.2,1-2.5,1.9-3.8,2.8
		c-6.3,4.4-12.4,9.1-18.4,13.9c-2.4,2-4.5,4.3-6.8,6.3c-0.5,0.5-1.2,1-0.7,2.2c2-0.5,3.9-1.3,5.7-2.3c4.5-2.4,8.9-5,13.2-7.9
		c0.5-0.3,0.9-0.6,1.4-0.8c1.8-0.7,3.4-1.7,4.7-3.2c0.8-1,1.9-1.5,3.2-1.1c0.9,0.3,2,0.8,1.8,1.8c-0.2,1.3-0.5,2.8-1.9,3.4
		c-1.2,0.5-2.4,0.8-3.2,2c0.5,0.7,0.9,0.1,1.3-0.1c2.8-1.4,5.6-2.6,8.5-3.7c2.1-0.8,4.1-2.4,6.1-3.5c4.9-2.7,9.7-5.4,14.1-8.9
		c4-3.2,8.1-6.1,12.2-9.2c0.5-0.4,1.2-0.6,1.7-0.8c1.5-0.8,3.1-1.4,4.3-2.8c1.3-1.5,3-2.7,4.8-3.6c2.3-1.1,4-2.9,6.2-4.1
		c1-0.5,1.3-1.4,1.6-2.5c1.4-5.3,5.2-8.6,9.4-11.6c1.3,1.1,0.7,1.8-0.1,2.4c-1.6,1.3-2.9,3-4.3,4.6c-0.8,1-1.6,2-1.6,3.7
		c1.3-0.4,2.1-1.2,2.9-1.9c0.5-0.4,0.9-0.9,1.5-1.2c1.2-0.6,3-0.3,3.7,0.7c0.9,1.2,0.5,2.2-0.3,3.2c-0.6,0.9-1.5,1.3-2.4,1.8
		c-2.2,1.5-4.5,3-6.3,5.1c-1,1.1-1.3,2.3-1.2,3.8c0.3,4.2,2,8,4,11.6c2.4,4.2,5.6,7.9,9.3,11.1c4.2,3.5,8.5,6.9,13.7,9
		c2.4,0.9,2.4,1,4.2-0.9c3-3.2,6.3-6.2,9.7-9c5.5-4.6,11.1-9,16.8-13.2c2.8-2.1,5.2-4.7,8.1-6.6c2.6-1.8,4.4-4.4,7.2-5.8
		c0.9-0.4,1.4-1.7,2.2-2.4c4-3.3,7.7-7,11.7-10.3c3-2.5,6-5,8.7-7.9c0.2-0.3,0.5-0.5,0.7-0.9c1.6-2.8,2.9-5.8,4.8-8.6
		c1.9-2.9,3.3-6.1,5.5-8.9c3-3.9,6.5-7.2,10-10.4c1.4-1.3,2.5-2.8,4-4.1c3-2.6,6.4-4.5,9.1-7.5c0.6-0.6,1.3-1.1,2.2-0.9
		c3.3,0.6,4,2.3,2.1,4.5c-2.5,3-3.9,6.6-6.3,9.6c-3,3.6-6.1,7-9.4,10.3c-3.3,3.4-7,6.5-10.1,10.1c-0.8,0.9-1.6,1.8-2.6,2.5
		c-5.4,4.1-8.2,9.8-10,16.2c-0.9,3.3-2.1,6.5-2.5,9.8c-0.7,5.4-2.1,10.6-2.9,15.9c-0.6,4-0.9,8-1.9,11.9c-0.2,0.6-0.3,1.3,0.1,1.8
		c0.6,0.5,1.1,0.2,1.5-0.1c3-1.4,6-2.8,9-4.1c0.9-0.4,1.4-1.2,2-1.8c1.5-1.4,2.9-1.7,4.1-0.7c1.4,1.1,1.4,2.5,0.1,4.3
		c-0.3,0.4-0.7,0.6-0.6,1.3c1.5,0.2,2.8-0.6,4.1-1c6.6-2.2,13.4-3.8,20-5.9c4.1-1.3,8.1-2.8,12-4.7c1.7-0.9,2.9-0.6,3.6,0.6
		c0.7,1.4,0.4,2.5-1.2,3.7c-2.9,2.2-5.9,4.5-8.4,7.2c0.6,0.5,1,0.2,1.4,0.1c9.5-3.4,19-6.7,28.4-10.5c4.3-1.8,8.5-3.9,12.7-5.8
		c0.6-0.3,1.2-0.5,1.8-0.7c1.2-0.3,2.5-0.3,3.2,0.8c0.7,1.1,0.5,2.3-0.2,3.4c-0.4,0.6-1.1,1-1.2,1.8c0.8,0.4,1.5,0,2.1-0.3
		c5.3-2.3,11-3.6,16.3-5.8c3.3-1.4,6.8-2.2,9.9-4c1.1-0.7,2.4-0.9,3.7-0.6c1.8,2.8,1.8,2.8-1.3,6.3c4.5-1.4,8.8-2.3,12.7-4.2
		c0.8-0.4,1.7-0.7,2.6-0.9c1.4-0.4,2.7-0.3,3.7,1c0.8,1.1,1.9,1.5,3,0.3c0.7-0.7,1.7-0.7,2.5-0.9c4.9-1.4,9.8-2.9,14.6-4.6
		c1.1-0.4,2.1-1,3.2-1.5c0.7-0.4,1.5-0.8,2.2-1.1c2.9-0.9,4.4,0.5,3.8,3.5c-0.1,0.5-0.7,0.9-0.4,1.5c2-0.6,3.9-1.2,5.8-2.2
		c3.2-1.8,6.9-2.5,10.5-3.3c1.7-0.4,3.5-0.5,5.1,0.6c0.9,0.6,1.7,0.4,2.6-0.1c1.2-0.6,2.4-1.2,3.7-1.8c1.1-0.5,2.2-0.9,3.3,0.1
		c1.1,1.1,1.3,2.2,0.7,3.7c-0.2,0.5-0.7,0.9-0.5,1.7c1.9-0.5,3.9-0.5,5.6-1.5c1.8-1.2,3.8-1.7,5.8-2.5c1.5-0.6,3.1-1,4.6-1.8
		c4.1-2.4,5-2.1,7.6,1.8c2.9,0.2,5.5-1.2,8.2-1.9c4.7-1.3,9.4-2.9,14.1-4.4c1.8-0.6,3.6-1.3,5.4-1.9c1.5-0.5,2.4,0.2,3.1,1.4
		c0.8,1.2,0.5,2.1-0.4,2.9c-2.2,1.9-3.9,4.3-6.7,5.5c-2.3,1-4.2,2.7-6.3,4.1c0.1,0.2,0.2,0.4,0.3,0.5c1.7-0.8,3.5-1.5,5.2-2.4
		c7.3-3.8,14.4-7.9,21.4-12.4c4.4-2.8,8.3-6.1,12.2-9.5c0.8-0.7,0.7-2.2,2.2-2.5c0,1.6-0.5,2.9-1.4,4.2
		c-4.3,6.4-10.2,10.9-16.6,14.9c-7.8,4.9-15.7,9.4-23.8,13.7c-3.8,2-8.2,2.6-12.4,3.3c-1.2,0.2-2.4-0.4-3.5-0.6
		c-2-0.5-2.4-3-0.9-4.4c1.4-1.3,3.2-2.1,4.9-3.1c2.7-1.6,5.4-3.1,8.2-4.5c1-0.5,1.8-1.2,2.3-2.6c-2.9,0.6-5.3,1.5-7.7,2.5
		c-1.1,0.5-2.2,0.9-3.4,1.1c-4.8,1.1-9.5,2.6-14.1,4.4c-0.7,0.3-1.3,0.5-2.1,0.6c-2.5,0.1-3.1-0.1-4.3-2.5c-0.7-0.4-1.4-0.2-2.1,0.2
		c-5.3,2.5-10.9,4.2-16.3,6.5c-0.5,0.2-1,0.4-1.6,0.5c-2,0.4-2.8-0.3-2.9-2.4c0-0.4,0-0.9,0-1.5c-2.5,0-4.4,1.4-6.5,2
		c-3.7,1-7.3,2.4-10.9,3.6c-0.9,0.3-1.8,0.3-2.7,0.2c-2.1-0.1-3-1.5-2.4-3.5c0.1-0.5,0.4-1-0.1-1.6c-1.2-0.1-2,0.7-2.8,1.4
		c-3.2,2.9-6.6,5.5-10.1,8.1c-1,0.8-2,1.6-3.5,1.4c-0.9-1.3-0.8-2.5,0.2-3.7c1.3-1.6,2.9-2.8,4.4-4.1c1.2-1,2.4-2.1,3.2-3.5
		c-2.7,0.2-5.3,1-7.7,2c-4.6,1.9-9.6,3.1-14.1,5.3c-1.1,0.5-2,1.3-3.1,1.7c-3.1,1.2-3.9,0.9-5.2-2.1c-1-0.5-2-0.2-2.9,0.2
		c-4.7,1.8-9.5,3.4-13.9,5.7c-1.1,0.6-2.2,1-3.4,1.1c-1.2,0.1-2.3-0.3-2.8-1.4c-0.5-1,0-1.9,0.7-2.8c0.9-1.3,2.6-1.7,3.7-3.3
		c-2.5,0-4.5,1-6.4,1.7c-5.1,1.8-9.8,4.5-15,6c-2.2,0.6-4.1,2.1-5.9,3.4c-1.3,0.9-2.7,1.2-4.2,1.2c-1.1,0-1.6-0.5-1.6-1.7
		c0-1.8,0.5-3,2.2-3.7c1.4-0.6,2.4-1.6,3.2-2.9c-0.5-0.7-0.9-0.1-1.4,0.1c-5,1.9-10,4.1-15.1,5.8c-3.3,1-6.5,2.4-9.7,3.8
		c-2.3,1-4.9,1.4-7,3c-0.8,0.6-2,0.7-3.2,0.6c-4.2-0.3-4.4-2.8-3-5.9c0.5-1,1.7-1.7,1.7-3.3c-3.4,1-6.7,2.2-10,3
		c-5.9,1.5-11.5,3.7-17.3,5.4c-2.4,0.7-4.7,0.5-6.8-1.1c-0.9-0.7-1.7-0.7-2.8-0.2c-1.4,0.7-2.8,1.4-4.3,1.8
		c-1.4,0.4-2.5,1.3-3.3,2.7c-2.4,4.6-6.5,7-11.4,8.3c-5.5,1.5-10.9,2.1-16.5,1.4c-1.1-0.1-2.2,0-3.3,0.2c-0.7,0.1-1.3,0.1-1.9-0.1
		c-4.6-1.9-9.5-2.3-14-4.5c-2.7-1.3-5.7-1.5-8.3,0.5c-0.7,0.5-1.4,0.8-2.1,1.3c-1.1,0.7-2.2,0.9-3.3,0c-0.9-0.7-0.9-2.3-0.1-3.6
		c0.4-0.8,1.3-1.3,1.4-2.3c-0.5-1.2-1.7-1.6-2.8-2c-3.5-1.3-6.4-3.5-9.1-6c-1.5-1.4-3.2-2.8-4.8-4c-1.8-1.3-2.8-3-4.2-4.6
		c-0.5-0.6-0.9-1.3-1-2.2c-0.1-0.7-0.4-1.5-0.9-1.9c-3.4-3-4.1-7.1-4.7-11.3c-0.2-1.3-0.8-2.4-1.1-3.9c-2.8,1.3-4.9,3.1-7.2,4.6
		c-5.9,3.9-11.7,7.8-17.8,11.2c-3,1.7-6.1,3.2-8.8,5.6c-2.7,2.3-4.5,5.3-6.3,8.2c-0.3,0.5-0.7,1.1-0.3,2c2.7-0.3,5.1-1.6,7.7-2.4
		c2.4-0.8,4.4-2.3,6.5-3.8c2.8-2.1,6.1-3.6,9.3-5.2c0.8-0.4,1.6-0.7,2.3-1.4c1.1-1.1,2.9-1.1,4-0.1c0.9,0.8,0.9,2.4-0.2,3.7
		c-0.6,0.7-1.1,1.4-2.1,1.7c-1.3,0.4-2.3,1.4-3.6,2.4c1.8,0.4,3.1-0.7,4.5-1c2.8-0.7,5.4-2,8.4-2.5c1.4-0.2,3-1.1,4.4-2
		c1-0.6,1.8-0.3,2.5,0.4c0.8,0.8,1.1,1.7,0.6,2.7c-0.4,1-1,1.9-1.8,2.7c-7.5,8.1-14.9,16.1-22.4,24.2c-5.3,5.7-11.3,10.7-16.9,16
		c-3.9,3.7-7.6,7.7-11.7,11.3c-3.5,3.1-6.6,6.6-10.1,9.7c-1.8,1.6-3.3,3.4-5,5.1c-2.1,2-4.2,4-6.4,6c-0.8,0.8-1.6,1.1-2.7,0.3
		c-1.1-0.8-0.8-1.8-0.4-2.7c0.7-1.4,1.8-2.6,3-3.5c3.8-2.9,6.9-6.5,10.3-9.8c3.4-3.4,6.7-7.1,10.5-10.1c0.9-0.7,1.5-1.6,2.3-2.4
		c5-4.7,10.2-9.2,15.1-14c4.6-4.4,9.3-8.8,13.3-13.9c2-2.5,4.5-4.6,6.6-6.9c2.1-2.3,4.1-4.7,6.1-7c0.2-0.3,0.5-0.6,0.2-1.1
		c-3.3,0.7-6.6,2-9.8,3c-2.7,0.8-5.4,1.7-8.2,2.4c-1.4,0.3-2.5,0.3-3.6-0.4c-1.2-0.8-2.3-0.8-3.6-0.2c-2.2,1-4.4,1.8-6.6,2.6
		c-0.8,0.3-1.6,0.4-2.4,0.6c-4.3,0.6-6.3-1.9-4.8-6.1c0.4-1.1,1-2.2,1.5-3.4c-0.9-0.5-1.7-0.1-2.3,0.3c-3.9,2.6-8.4,4-12.4,6.3
		c-2.1,1.2-4.4,1.9-6.5,2.8c-2.5,1.1-5.2,1.9-7.1-1.2c-3.4,1.4-6.5,3.1-9.6,4.9c-1.9,1.1-3.8,2.1-6,2.7c-1.3,0.4-2.7,0.7-3.5-0.6
		c-0.9-1.4-1-3-0.1-4.4c1.7-2.5,3.7-4.7,5.9-6.8C284.9,129.3,285.6,128.7,286,127.8z M464.4,83.1c-0.7,0.5-1.4,1-2,1.6
		c-7.5,6.6-15,13.2-22.5,19.7c-4.5,3.9-9,7.8-13.7,11.5c-6.4,5-12.8,10-18.5,15.9c-0.5,0.5-1.2,0.9-0.8,1.8c2.2-0.2,4.3-0.6,6.3-1.5
		c1-0.5,2.2-0.9,3.2-0.7c2.7,0.4,5-0.8,7.5-1.2c2-0.4,3.9-0.9,5.9-1.3c0.9-0.2,1.8-0.4,2.4,0.6c-0.6,1.2-1.7,1.4-2.8,1.6
		c-0.6,0.1-1.3-0.1-1.9,0.2c-4.2,1.9-8.6,3-13.2,3.7c-0.6,0.1-1.1,0.3-1.2,1.1c1.8,1.1,4,1.5,6,2.1c1.4,0.4,2.8,1,4.3,0.8
		c5.9-0.8,11.5-2.8,17.1-4.5c4.1-1.3,8-3.2,12.2-4.3c1.2-0.3,2.4-0.8,2.5-2.2c0.4-3.8,2.1-7.3,2.4-11.2c0.1-2.1,0.5-4.4,1-6.5
		c1.2-4.6,1.7-9.3,2.8-13.9c0.9-4.2,1.1-8.5,3.6-12.2C465.3,83.9,465,83.5,464.4,83.1z M478.9,63.9c2.1-2,4.4-3.8,6.5-5.8
		c2.1-2.1,4.4-4,6-6.6c1.5-2.5,4-4.2,5-7C489.6,50.1,482.9,55.7,478.9,63.9z M447.4,136.9c0-0.1-0.1-0.1-0.1-0.2
		c-0.1,0.1-0.3,0.1-0.4,0.2c0,0,0.1,0.1,0.1,0.2C447.1,137,447.3,137,447.4,136.9z"/>
	<path d="M221.5,90.3c1.4,2.1,3.3,3.2,4.6,5c4,5.6,4.3,11.7,2.4,18c-2.2,7.2-6.2,13.2-11.7,18.3c-3.3,3-6.5,6.2-10.7,8
		c-1.5,0.6-2.6,1.7-3.9,2.6c-5.8,3.8-12.2,6.4-18.5,9.1c-3.9,1.7-7.8,3.1-11.9,4.1c-4.2,1.1-8.4,2.7-12.7,3.6
		c-2.8,0.6-5.7,0.7-8.4,1.4c-3.7,1-7.4,1.3-11,2.1c-2.4,0.5-4.7,0.5-7.1,0.8c-1.7,0.2-3.1,0.8-4,2.5c-0.7,1.3-1.3,2.6-2.1,3.9
		c-0.3,0.5-0.5,1-0.8,1.4c-0.4,0.4-0.9,0.8-1.4,0.4c-0.6-0.4-0.6-1-0.2-1.4c0.9-1.2,1.2-2.7,1.7-4c0.3-0.6,0.2-1.2-0.1-1.8
		c-8.7,0-17.4,1.5-26.1,0.4c-1.7,1.4-3.2,2.9-4.5,4.7c-0.8,1.1-1.5,2.1-1.2,3.5c0.2,1.1-0.4,1.8-1.2,2.3c-1.4,0.9-2.8,1.7-4.3,2.4
		c-1,0.5-2.1,0.9-3-0.2c-1-1.3-0.9-3.3,0.2-4.2c2.6-2.2,4.5-5.2,7.1-7.4c0.2-0.2,0.3-0.6,0.4-0.9c-0.3-0.9-1-0.8-1.7-0.9
		c-5.8-1.1-11.7-1.7-17.5-3.4c-5.7-1.6-10.9-4.2-16.2-6.6c-0.8-0.4-1.7-0.9-2.2-1.6c-2.1-2.4-4.7-4.4-6.6-7c-1.8-2.4-2.7-5-2.8-7.9
		c-0.2-8.4,2.2-15.6,8.6-21.4c5.3-4.8,11.3-8.4,18-10.8c5.9-2.1,11.8-4.1,17.8-5.6c7.4-1.9,14.9-2.5,22.6-2.5c6.5,0,12.8,1.1,19,2.7
		c5.3,1.3,10.1,3.8,14,7.7c1.1,1.1,2,2.3,2.4,3.9c0.3,1,0.5,2.1,1.5,2.9c2-0.3,2.9-2,4.1-3.1c3.2-3,6.7-5.6,10.1-8.3
		c3.8-3,7.7-5.8,11.8-8.4c2-1.3,3.8-3.1,5.8-4.6c3.9-2.8,7.9-5.4,11.8-8.4c5.6-4.3,11.7-7.7,17.6-11.7c3.4-2.3,7-4.3,10.8-5.9
		c2.2-1,4.2-2.6,6.4-3.8c4-2.3,8.2-4,12.6-5.3c3.4-1,7.1-1.1,10.6-0.8c3.3,0.3,4.7,2,4.7,5.3c-0.2,6.4-2.8,11.7-7.3,16.1
		c-6.2,6-13.8,9.6-21.7,12.7C225.6,89,223.8,89.9,221.5,90.3z M133.4,158.8c1,0.4,1.9,0.2,2.8,0.3c2.5,0.3,4.8-1,7.3-1
		c1,0,2,0.3,3,0c4.2-1,8.3-2,12.5-2.9c1.1-0.2,2-0.9,3.1-1.1c2.9-0.4,5.7-1.1,8.4-2.3c0.7-0.3,1.4-0.6,2.1-0.3
		c0.5,0.2,0.9,0.1,1.3-0.2c2.5-2,5.6-2.6,8.5-3.7c4.1-1.5,8.2-3,11.9-5.4c2.2-1.5,4.5-3,6.9-3.9c2.5-0.9,4.3-2.7,6.3-4.1
		c4.3-3,8.2-6.6,11.4-10.9c3.6-4.7,5.9-9.8,6.5-15.7c0.5-5.1-1.8-9-5.4-12.3c-2-1.8-4.6-2.7-7.4-2.2c-1.5,0.3-3.1,0.3-4.6,0.5
		c-1.7,0.2-3-0.8-3.1-2.3c-0.1-1.3,1.1-2.3,2.9-2.2c1.5,0,2.9-0.4,4.4-0.4c2.6,0,4.7-1.5,7.1-1.8c2-0.2,3.9-1,5.8-1.7
		c2.9-1.1,5.5-2.9,8.4-4c3.9-1.4,7.4-3.4,10.4-6.3c2.2-2.1,4-4.5,5.6-7c1.3-2,1.8-4.4,1.7-6.8c0-2.2-0.5-2.8-2.8-2.8
		c-2.1,0-4.2,0.2-6.2,0.7c-5.2,1.3-10,3.7-14.6,6.2c-6.5,3.5-13.1,7-19.2,11.2c-5.9,4-12.2,7.5-17.8,11.9c-6,4.7-12.3,9-18.4,13.5
		c-6,4.4-11.3,9.6-17.3,14c-3.4,2.4-5.9,5.1-5.7,9.6c-1.9,7-4.4,13.8-8.1,20C138.5,149.9,136,154.3,133.4,158.8z M104.1,101.8
		c-6.2,0.4-12.3,1.7-18.3,3.3c-4,1.1-8.1,2.4-12,3.9c-6.5,2.4-12.6,5.5-17.4,10.7c-2.7,2.9-4.9,6.3-5.7,10.2
		c-1.3,6.2,0.5,11.5,5,16.3c5.1,5.2,11.4,8.1,18,10.1c6.9,2.1,13.9,3.7,21.2,4.1c1.8,0.1,3.4-0.2,4.7-1.6c2.9-2.8,6-5.5,8.9-8.4
		c4.3-4.4,9.1-8.2,13.9-12c4.5-3.6,8.7-7.5,13.1-11.2c2.8-2.3,5.8-4.4,8.4-7c0.7-0.7,1.6-1.3,1.7-2.4c0.1-2.3-0.7-4.5-2.1-6
		c-2.8-3.1-6.4-5.5-10.4-6.8c-8.8-2.8-17.8-4.2-27-3C105.4,101.8,104.8,101.8,104.1,101.8z M103.9,161c3.5,0.4,6.7,0.4,9.9,0.3
		c3.7-0.1,7.4-0.8,11.2-0.8c1.8,0,3.9-0.2,5.1-2.2c3.8-6.4,8.1-12.6,10.9-19.6c1.6-4.1,3.4-8.1,4.3-12.5c0.1-0.6,0.6-1.2-0.2-1.7
		c-1.1,0.3-1.9,1.2-2.7,1.9c-4.3,3.7-8.7,7.4-12.9,11.1c-5.3,4.6-11,8.8-16.1,13.7c-2.1,2-4.3,4-6.5,5.9
		C105.7,158.1,104.6,159.1,103.9,161z"/>
	<path d="M632.6,45.5c-0.7,0.8-1.5,0.5-2.1,0.5c-2.1,0.2-4.2-0.2-6.3,0.1c-0.7,0.1-1.5,0.1-2.1-0.5c-1.5-1.3-3.3-1.6-5.1-1.9
		c-1.3-0.2-2.4-0.9-3.4-1.6c-1.4-1-1.5-1.9-0.8-3.3c0.8-1.5,1.9-2,3.4-1.1c1.3,0.8,2.7,1,4.1,1.5c1.6,0.6,3.3,1.1,4.7,2.2
		c1.9,1.5,4,2.5,6.4,3C631.9,44.5,632.4,44.7,632.6,45.5z"/>
</g>
</svg>
