<svg id="Layer_1" data-name="Layer 1" xmlns="http://www.w3.org/2000/svg" viewBox="0 0 1624.89 120.22"><defs><style>.cls-1{fill:#2b4099;}.cls-2{fill:#ec2227;}.cls-3{fill:#fff;}</style></defs><title>swoosh</title><rect class="cls-1" x="53.2" width="1517.16" height="120.22"/><polygon class="cls-2" points="1570.4 118.42 52.91 118.42 51.63 75.75 560.11 38.25 696.6 60.75 894.59 80.25 1095.58 66.75 1389.57 32.25 1571.06 45.75 1570.4 118.42"/><path class="cls-3" d="M1556.82,23.85c20.06,11.7-17.8,13.09,1.91,24.83-164-17.46-313.41-13.82-458.1,10.94C1000.25,76.8,869.46,97,749.06,81.55,692.54,74.3,660,59.63,607.79,50.7,545.43,40,471.07,37.51,398.76,40.32,252.63,46,95.69,73.55-28.94,93.19-46.87,78.76-44.07,79-62,64.58,62.94,45.81,223.28,18.65,369.37,14.91c164.56-4.21,213.56,29.52,347.91,41.83C842.11,68.19,966,48,1069.71,31.63,1215.1,8.68,1404.64-.1,1556.82,23.85" transform="translate(62 9.16)"/></svg>